<svg width="256" height="256" viewBox="0 0 256 256" fill="none" xmlns="http://www.w3.org/2000/svg">
  <rect width="256" height="256" rx="64" fill="#FAFAFA"/>
  <circle cx="128" cy="128" r="82" fill="#F5F5F5" stroke="#171717" stroke-width="10"/>
  <circle cx="128" cy="128" r="62" stroke="#171717" stroke-opacity="0.18" stroke-width="4"/>
  <path
    d="M153.856 97.856C151.467 91.9787 145.323 88 136.928 88C126.421 88 118.667 94.4213 118.667 103.787C118.667 112.149 123.669 116.768 134.208 120.075L139.125 121.675C146.336 124 149.152 126.251 149.152 130.933C149.152 136.192 144.395 140.096 136.757 140.096C128.981 140.096 123.499 136.907 120.949 130.272L110 135.04C113.872 145.952 123.605 152 136.672 152C151.083 152 160 144.587 160 132.555C160 122.837 154.517 117.589 143.211 114.229L137.579 112.48C130.005 110.123 129.333 108.587 129.333 104.939C129.333 101.099 132.885 98.7733 137.237 98.7733C141.899 98.7733 144.715 100.64 147.073 104.597L153.856 97.856Z"
    fill="#171717"
  />
</svg>
